**ABCDEFGHIJKLMNOPQRSTUVWXYZabcdefghijklmnopqrstuvwxyz**************************
**PARASOLID !"#$%&'()*+,-./:;<=>?@[\]^_`{|}~0123456789**************************
**PART1;
MC=AMD64;
MC_MODEL=AMD64 Family 23 Model 113 Stepping 0, AuthenticAMD;
MC_ID=unknown;
OS=Windows_NT;
OS_RELEASE=unknown;
FRU=Parasolid Version 32.1, build 255,  1- 1-2021;
APPL=SOLIDWORKS 2021-2021085;
SITE=;
USER=unknown;
FORMAT=text;
GUISE=transmit;
KEY=makeProjectedPlanarWire;
FILE=makeProjectedPlanarWire.x_t;
DATE=Mon Aug 22 19:59:42 2022;
**PART2;
SCH=SCH_3201255_32001;
USFLD_SIZE=0;
**PART3;
**END_OF_HEADER*****************************************************************
T51 : TRANSMIT FILE created by modeller version 320125523 SCH_3201255_32001_1300
6229 0 12 34 CCCCCCI4 mesh1006 0 I8 polyline1008 0 CCCCCCCDI5 owner1040 0 CCCCCC
I13 boundary_mesh1006 0 I17 boundary_polyline1008 0 CCCA16 index_map_offset0 0 1
 dA9 index_map82 0 A17 node_id_index_map82 0 A20 schema_embedding_map82 0 A5 chi
ld12 0 A14 lowest_node_id0 0 1 dA16 mesh_offset_data206 0 Z1 293 0 0 0 0 0 0 0 0
 1e3 1e-8 0 2 0 1 0 3 1 3 4 5 6 0 0 7 8 9 0 0 0 0 0 0 0 13 255 3 98 0 1 0 10 0 0
 7 10 50 255 4 3 0 10 0 0 0 +.035 0 0 1 0 0 0 0 -1 30 255 5 67 0 8 11 0 0 +.035
 -.025 0 0 0 1 29 255 6 96 0 9 12 0 .035 -.02500000000000105 .0255 19 8 CCCCCCCA
5 owner12 0 Z7 97 0 1 0 0 3 V0 16 255 8 65 0 ?13 0 14 5 0 0 1 18 255 9 94 0 15 0
 16 6 ?1 17 255 15 0 0 0 0 9 17 18 0 13 -18 16 91 0 19 9 20 12 ?1 17 19 0 21 13
 22 16 23 14 0 24 +18 20 88 0 22 16 25 26 ?1 29 12 93 0 16 26 6 .035 -.025 -.025
5 29 26 90 0 20 27 12 .035 .025 -.0255 29 27 87 0 25 28 26 .035 .025 .0255 18 25
 85 0 17 20 29 27 ?1 29 28 84 0 29 30 27 .035 -.02995 .03 18 29 82 0 31 25 32 28
 ?1 29 30 81 0 32 33 28 .035 .02995 .03 18 32 79 0 34 29 35 30 ?1 29 33 78 0 35
 36 30 .035 .02995 -.03 18 35 76 0 37 32 38 33 ?1 29 36 75 0 38 0 33 .035 -.0299
5 -.03 18 38 73 0 39 35 0 36 ?1 17 39 0 40 37 41 38 31 42 0 43 +15 255 40 7 0 39
 10 21 17 37 0 40 34 39 35 43 44 0 45 +17 41 0 40 39 34 29 46 47 0 0 +17 31 0 0
 0 0 29 39 42 0 41 -16 42 9 0 ?39 44 0 48 0 0 1 17 43 0 0 0 0 38 37 44 0 0 -16 4
4 17 0 ?37 49 42 50 0 0 1 16 49 25 0 ?34 47 44 51 0 0 1 30 50 19 0 44 48 51 0 +.
035 0 -.03 0 1 0 30 48 11 0 42 0 50 0 +.035 -.02995 0 0 0 -1 30 51 27 0 49 50 52
 0 +.035 .02995 0 0 0 1 30 52 35 0 47 51 53 0 +.035 0 .03 0 -1 0 16 47 33 0 ?41
 18 49 52 0 0 1 30 53 43 0 18 52 54 0 +.035 0 .0255 0 1 0 16 18 41 0 ?17 55 47 5
3 0 0 1 30 54 51 0 55 53 11 0 +.035 .025 0 0 0 -1 16 55 49 0 ?22 14 18 54 0 0 1
 30 11 59 0 14 54 5 0 +.035 0 -.0255 0 -1 0 16 14 57 0 ?19 8 55 11 0 0 1 17 22 0
 21 19 17 20 56 55 0 23 +15 21 8 0 17 10 0 17 17 0 21 22 13 25 15 18 0 56 +17 56
 0 0 0 0 25 22 55 0 0 -17 23 0 0 0 0 20 19 14 0 0 -17 13 0 21 17 19 9 24 8 0 0 +
17 24 0 0 0 0 16 13 8 0 0 -14 255 10 1 0 ?0 0 40 3 4 +0 0 0 0 3 17 34 0 40 41 37
 32 45 49 0 46 +17 45 0 0 0 0 35 34 49 0 0 -17 46 0 0 0 0 32 41 47 0 0 -1 0 
